<svg width="128" height="128" viewBox="0 0 64 64" fill="none" xmlns="http://www.w3.org/2000/svg" role="img" aria-label="EnvGuardian">
  <defs>
    <linearGradient id="eg-shield-t" x1="16" y1="4" x2="48" y2="60" gradientUnits="userSpaceOnUse">
      <stop offset="0" stop-color="#38BDF8"/>
      <stop offset="1" stop-color="#4F46E5"/>
    </linearGradient>
  </defs>
  <path d="M32 4C32 4 44 9 52 11C53 11.3 54 12 54 14L54 31C54 45 45 54 32 60C19 54 10 45 10 31L10 14C10 12 11 11.3 12 11C20 9 32 4 32 4Z" fill="url(#eg-shield-t)"/>
  <path d="M32 4C32 4 44 9 52 11C53 11.3 54 12 54 14L54 31C54 45 45 54 32 60C19 54 10 45 10 31L10 14C10 12 11 11.3 12 11C20 9 32 4 32 4Z" fill="#ffffff" fill-opacity="0.08"/>
  <path d="M24 24L31 31L24 38" stroke="#ffffff" stroke-width="4" stroke-linecap="round" stroke-linejoin="round"/>
  <path d="M34 39H43" stroke="#ffffff" stroke-width="4" stroke-linecap="round"/>
</svg>
